<svg width="56" height="56" viewBox="0 0 56 56" fill="none" xmlns="http://www.w3.org/2000/svg">
<g id="synagogue" clip-path="url(#clip0_11_98)">
<g id="Group">
<path id="Vector" d="M47.9141 0.390625C48.4501 0.390625 48.8846 0.825446 48.8848 1.36133V6.37988C53.0934 6.90452 56.0031 11.386 54.6396 15.4922V36.1777C54.6396 36.7137 54.2051 37.1484 53.6689 37.1484C53.1329 37.1483 52.6982 36.7137 52.6982 36.1777V16.2539H43.1299V53.668H52.6982V39.6162C52.6983 39.0803 53.1329 38.6456 53.6689 38.6455C54.205 38.6455 54.6396 39.0803 54.6396 39.6162V53.668H55.1904L55.3066 53.6777C56.4679 53.8263 56.4303 55.5664 55.1904 55.6094H55.1855V55.459L55.1846 55.6094H0.964844V55.6143L0.80957 55.6094C-0.479302 55.5638 -0.459681 53.7099 0.80957 53.668H1.39648V15.4902C0.0345488 11.3847 2.94435 6.90433 7.15234 6.37988V1.36133C7.15246 0.825446 7.587 0.390625 8.12305 0.390625C8.65887 0.390886 9.09265 0.825607 9.09277 1.36133V6.37988C13.3018 6.90448 16.2118 11.3867 14.8477 15.4932V17.5654L18.2871 14.8691H18.2881L18.3691 14.8115C18.7848 14.549 19.3404 14.6388 19.6504 15.0342L19.707 15.1152C19.9524 15.5033 19.8913 16.0127 19.5605 16.3311L19.4854 16.3965L14.8477 20.0322V53.668H17.7666V46.417C17.7666 44.0079 19.7266 42.0479 22.1357 42.0479C24.5446 42.0481 26.5039 44.0082 26.5039 46.417V53.668H29.3857V46.417C29.3857 44.0079 31.3458 42.0479 33.7549 42.0479C36.164 42.0479 38.124 44.008 38.124 46.417V53.668H41.1885V20.0605L28 9.71973L21.9287 14.4814C21.5334 14.7915 20.9721 14.746 20.6309 14.3916L20.5654 14.3164C20.2348 13.8947 20.3089 13.2849 20.7305 12.9541L26.8359 8.16602L26.9678 8.07227C27.6399 7.63146 28.5217 7.66239 29.1641 8.16602L41.1885 17.5938V15.4902C39.8266 11.3848 42.7362 6.90426 46.9443 6.37988V1.36133C46.9445 0.825571 47.3782 0.390827 47.9141 0.390625ZM3.33789 53.668H12.9062V16.2539H3.33789V53.668ZM33.7549 43.9893C32.4164 43.9893 31.3271 45.0786 31.3271 46.417V53.668H36.1826V46.417C36.1826 45.0784 35.0934 43.9893 33.7549 43.9893ZM22.1357 43.9893C20.7972 43.9893 19.708 45.0786 19.708 46.417V53.668H24.5635V46.417C24.5635 45.0786 23.4741 43.9895 22.1357 43.9893ZM47.6143 8.25684C44.5946 8.40506 42.2971 11.3288 42.8896 14.3135H52.9395C53.5513 11.2315 51.0806 8.21452 47.916 8.25195H47.9131L47.6143 8.25684ZM7.82227 8.25684C4.80277 8.40526 2.50508 11.3289 3.09766 14.3135H13.1475C13.7593 11.2316 11.2894 8.2148 8.125 8.25195H8.12109L7.82227 8.25684Z" fill="white" stroke="white" stroke-width="0.3"/>
<path id="Vector_2" d="M20.0414 32.3126C20.188 32.5665 20.4588 32.7229 20.752 32.7229H25.1246L27.2728 36.4437C27.4194 36.6975 27.6902 36.8539 27.9834 36.8539C28.2766 36.8539 28.5473 36.6975 28.6939 36.4437L30.8421 32.7229H35.2147C35.5079 32.7229 35.7787 32.5665 35.9253 32.3126C36.0719 32.0588 36.0719 31.746 35.9253 31.4921L33.739 27.7052L35.9253 23.9182C36.0719 23.6643 36.0719 23.3515 35.9253 23.0977C35.7787 22.8439 35.5079 22.6874 35.2147 22.6874H30.8421L28.6941 18.9667C28.5475 18.7128 28.2767 18.5564 27.9835 18.5564C27.6903 18.5564 27.4195 18.7128 27.2729 18.9667L25.1248 22.6874H20.7522C20.459 22.6874 20.1883 22.8439 20.0417 23.0977C19.8951 23.3515 19.8951 23.6643 20.0417 23.9182L22.2279 27.7052L20.0417 31.4921C19.8948 31.746 19.8948 32.0588 20.0414 32.3126ZM27.9834 34.3923L27.0195 32.7229H28.9471L27.9834 34.3923ZM26.0722 31.0818L24.1228 27.7052L26.0723 24.3285H29.8946L31.844 27.7052L29.8946 31.0818H26.0722ZM33.7934 31.0818H31.7894L32.7915 29.3462L33.7934 31.0818ZM33.7934 24.3285L32.7914 26.0641L31.7894 24.3285H33.7934ZM27.9834 21.0181L28.9471 22.6874H27.0196L27.9834 21.0181ZM22.1732 24.3285H24.1772L23.1752 26.0641L22.1732 24.3285ZM23.1752 29.3463L24.1773 31.0819H22.1733L23.1752 29.3463Z" fill="white"/>
<path id="Vector_3" d="M50.7012 25.9886C50.7012 24.6498 50.1063 23.3918 49.0689 22.5371L48.4914 22.0613C48.1182 21.754 47.581 21.7591 47.2137 22.0735L46.6572 22.5498C45.6614 23.4023 45.0904 24.6403 45.0904 25.9464V30.59C45.0904 31.0431 45.4577 31.4105 45.9109 31.4105H49.8807C50.334 31.4105 50.7012 31.0431 50.7012 30.59V25.9886ZM49.0602 29.7695H46.7315V25.9465C46.7263 25.0538 47.1627 24.2206 47.8677 23.6739C48.6055 24.2206 49.0662 25.0694 49.0602 25.9887V29.7695Z" fill="white"/>
<path id="Vector_4" d="M49.0689 38.8711L48.4914 38.3953C48.1182 38.0879 47.581 38.0932 47.2137 38.4074L46.6572 38.8838C45.6614 39.7362 45.0904 40.9743 45.0904 42.2803V46.9239C45.0904 47.3771 45.4577 47.7445 45.9109 47.7445H49.8807C50.334 47.7445 50.7012 47.3771 50.7012 46.9239V42.3225C50.7012 40.9838 50.1064 39.7256 49.0689 38.8711ZM49.0602 46.1034H46.7315V42.2803C46.7263 41.3876 47.1627 40.5545 47.8677 40.0078C48.6055 40.5545 49.0662 41.4032 49.0602 42.3226V46.1034Z" fill="white"/>
<path id="Vector_5" d="M9.2772 22.5371L8.70009 22.0617C8.32702 21.7542 7.78973 21.7588 7.4218 22.0735L6.86548 22.5499C5.86968 23.4024 5.29858 24.6404 5.29858 25.9465V30.5901C5.29858 31.0432 5.66586 31.4106 6.11912 31.4106H10.0889C10.5421 31.4106 10.9094 31.0432 10.9094 30.5901V25.9886C10.9094 24.6497 10.3146 23.3918 9.2772 22.5371ZM9.26834 29.7695H6.93966V25.9465C6.93452 25.0538 7.37104 24.2207 8.07605 23.6739C8.81376 24.2206 9.27436 25.0693 9.26834 25.9887C9.26834 25.9886 9.26834 29.7695 9.26834 29.7695Z" fill="white"/>
<path id="Vector_6" d="M9.2772 38.8711L8.70009 38.3957C8.32702 38.0881 7.78973 38.0929 7.4218 38.4075L6.86548 38.8839C5.86968 39.7364 5.29858 40.9744 5.29858 42.2805V46.924C5.29858 47.3772 5.66586 47.7446 6.11912 47.7446H10.0889C10.5421 47.7446 10.9094 47.3772 10.9094 46.924V42.3226C10.9094 40.9838 10.3146 39.7257 9.2772 38.8711ZM9.26834 46.1035H6.93966V42.2805C6.93452 41.3878 7.37104 40.5547 8.07605 40.0079C8.81376 40.5546 9.27436 41.4032 9.26834 42.3227V46.1035Z" fill="white"/>
</g>
</g>
<defs>
<clipPath id="clip0_11_98">
<rect width="56" height="56" fill="white"/>
</clipPath>
</defs>
</svg>
