<svg width="56" height="56" viewBox="0 0 56 56" fill="none" xmlns="http://www.w3.org/2000/svg">
<g id="jewish" clip-path="url(#clip0_11_66)">
<g id="g1155">
<g id="g1157">
<g id="Clip path group">
<mask id="mask0_11_66" style="mask-type:luminance" maskUnits="userSpaceOnUse" x="0" y="0" width="56" height="56">
<g id="clipPath1163">
<path id="path1161" d="M0 7.62939e-06H56V56H0V7.62939e-06Z" fill="white"/>
</g>
</mask>
<g mask="url(#mask0_11_66)">
<g id="g1159">
<g id="g1165">
<path id="path1167" d="M16.1586 33.3313C14.8962 31.6526 13.2252 29.4219 12.8313 28.9165C12.2088 28.1174 11.0475 27.9702 10.2506 28.5897C9.45384 29.2092 9.58149 30.2201 9.934 31.1692C10.858 33.6581 12.0244 36.215 13.1796 38.1951M9.78481 29.1892L4.83767 20.5908C3.28871 18.0043 0.279033 19.7642 1.3006 22.0789C2.01645 23.6573 4.83406 31.1342 6.96064 36.1079C8.49025 39.6853 9.11577 40.6151 11.8739 43.3126L16.0665 47.4134C15.5796 49.3901 15.0928 51.3669 14.606 53.3436C14.3993 54.1146 14.9572 54.9062 15.7015 54.9062H24.2655C25.4369 54.9062 26.0865 54.4788 26.4596 53.4683C28.853 46.9857 26.2917 43.0537 23.2104 40.1618" stroke="white" stroke-width="2" stroke-miterlimit="2.613" stroke-linecap="round" stroke-linejoin="round"/>
</g>
<g id="g1169">
<path id="path1171" d="M46.2151 29.1892L51.162 20.5908C52.7111 18.0043 55.7207 19.7642 54.6991 22.0789C53.9832 23.6573 51.1658 31.1342 49.0391 36.1079C47.5096 39.6853 46.8839 40.6151 44.1258 43.3126L39.9332 47.4135C40.4202 49.3901 40.907 51.367 41.3939 53.3436C41.6005 54.1146 41.0427 54.9062 40.2983 54.9062H31.7343C30.5629 54.9062 29.9133 54.4788 29.5402 53.4683C25.4985 42.5219 35.5851 38.8473 38.446 35.1749C39.0425 34.409 42.5717 29.6823 43.1685 28.9165C43.791 28.1174 44.9523 27.9702 45.7491 28.5897C46.5459 29.2092 46.4182 30.2201 46.0658 31.1692C45.1418 33.6581 43.9753 36.215 42.8202 38.1951" stroke="white" stroke-width="2" stroke-miterlimit="2.613" stroke-linecap="round" stroke-linejoin="round"/>
</g>
<g id="g1173">
<path id="path1175" d="M27.9999 25.156L36.7499 10.4645H19.2499L27.9999 25.156Z" stroke="white" stroke-width="2" stroke-miterlimit="2.613" stroke-linecap="round" stroke-linejoin="round"/>
</g>
<g id="g1177">
<path id="path1179" d="M27.9999 5.46869L36.7499 20.1602H19.2499L27.9999 5.46869Z" stroke="white" stroke-width="2" stroke-miterlimit="2.613" stroke-linecap="round" stroke-linejoin="round"/>
</g>
<g id="g1181">
<path id="path1183" d="M27.9999 29.531C35.8313 29.531 42.2186 23.1437 42.2186 15.3123C42.2186 7.48079 35.8313 1.09351 27.9999 1.09351C20.1684 1.09351 13.7811 7.48079 13.7811 15.3123C13.7811 23.1437 20.1684 29.531 27.9999 29.531Z" stroke="white" stroke-width="2" stroke-miterlimit="22.926" stroke-linecap="round" stroke-linejoin="round"/>
</g>
<g id="g1185">
<path id="path1187" d="M19.4359 37.0027H19.4368" stroke="white" stroke-width="2" stroke-miterlimit="2.613" stroke-linecap="round" stroke-linejoin="round"/>
</g>
</g>
</g>
</g>
</g>
</g>
</g>
<defs>
<clipPath id="clip0_11_66">
<rect width="56" height="56" fill="white"/>
</clipPath>
</defs>
</svg>
