<svg width="56" height="56" viewBox="0 0 56 56" fill="none" xmlns="http://www.w3.org/2000/svg">
<g id="synagogue (1)">
<path id="Vector" d="M27.666 5.36377C27.9162 5.26487 28.2006 5.28163 28.4395 5.41357L39.0928 11.2876H39.0938C39.3774 11.4433 39.5557 11.7394 39.5557 12.063V28.0991H40.6553C41.1464 28.0992 41.5545 28.4907 41.5547 28.9868V34.811L50.042 39.3872L50.1445 39.4517C50.3714 39.6166 50.5107 39.8799 50.5107 40.1655V51.1255H51.4004C51.8914 51.1257 52.2996 51.5162 52.2998 52.0122C52.2998 52.5084 51.8916 52.8997 51.4004 52.8999H4.59961C4.10844 52.8997 3.7002 52.5084 3.7002 52.0122C3.70041 51.5162 4.10857 51.1257 4.59961 51.1255H5.39941V40.1655C5.39945 39.8391 5.58136 39.5418 5.86816 39.3872L14.4453 34.7622V28.9868C14.4455 28.4907 14.8536 28.0992 15.3447 28.0991H16.4443V12.063C16.4443 11.7797 16.5804 11.5173 16.8047 11.3521L16.9053 11.2876L27.5605 5.41357L27.666 5.36377ZM41.5547 51.1255H48.7109V40.6919L41.5547 36.8345V51.1255ZM16.2451 51.1255H21.6084V42.6108C21.6084 42.5066 21.6264 42.4017 21.6641 42.3022L21.75 42.1021C22.0895 41.3749 23.4799 38.923 27.2861 37.5464L27.7188 37.3979C27.9004 37.3384 28.0985 37.3386 28.2803 37.3979H28.2812C32.999 38.9284 34.2636 42.1097 34.3359 42.3022L34.3779 42.4546C34.3873 42.5063 34.3916 42.5586 34.3916 42.6108V51.1255H39.7549V29.8745H16.2451V51.1255ZM28.9004 51.1255H32.5918V42.7964C32.3679 42.3319 31.4305 40.6909 28.9004 39.5425V51.1255ZM27.0996 39.5425C24.5713 40.69 23.6333 42.3289 23.4082 42.7964V51.1255H27.0996V39.5425ZM7.2002 40.6909V51.1255H14.4453V36.7866L7.2002 40.6909ZM18.2441 12.5835V28.0991H37.7549V12.5835L27.999 7.20361L18.2441 12.5835Z" fill="white" stroke="white" stroke-width="0.6"/>
<path id="Vector_2" d="M28 9.50049C28.2319 9.50049 28.4716 9.61088 28.5947 9.84131L30.3809 13.1851H34.4199C34.6631 13.1852 34.8856 13.3198 35.0068 13.5356L35.0469 13.6187C35.1268 13.8168 35.1165 14.0436 35.0156 14.2349V14.2358L32.9844 18.0601L35.0146 21.8608L35.0527 21.9448C35.1283 22.1447 35.1123 22.3711 35.0068 22.5601L35.0078 22.561C34.8872 22.7771 34.6633 22.9124 34.4199 22.9126H30.4111L28.5957 26.3345C28.4766 26.5578 28.2497 26.6997 28 26.6997C27.7816 26.6997 27.5807 26.5913 27.4541 26.4146L27.4043 26.3345L25.5889 22.9126H21.5801C21.3367 22.9124 21.1128 22.7771 20.9922 22.561L20.9932 22.5601C20.8726 22.3441 20.8692 22.0789 20.9854 21.8608L23.0146 18.0601L20.9844 14.2358V14.2349C20.8691 14.0163 20.8722 13.7512 20.9932 13.5356L21.043 13.4585C21.1701 13.2881 21.3673 13.1852 21.5801 13.1851H25.6191L27.4053 9.84131L27.4561 9.76123C27.5875 9.58516 27.7968 9.50049 28 9.50049ZM28 24.5269L28.8564 22.9126H27.1436L28 24.5269ZM31.1631 21.4966H33.2637L32.209 19.5229L31.1631 21.4966ZM24.5703 18.063L26.3926 21.4966H29.6074L31.4287 18.063L29.5801 14.6011H26.4199L24.5703 18.063ZM22.7363 21.4966H24.8369L23.79 19.5229L22.7363 21.4966ZM23.7939 16.6001L24.8623 14.6011H22.7344L23.7939 16.6001ZM32.2051 16.6001L33.2656 14.6011H31.1377L32.2051 16.6001ZM27.1758 13.1851H28.8242L28 11.6421L27.1758 13.1851Z" fill="white" stroke="white" stroke-width="0.2"/>
</g>
</svg>
