<svg width="56" height="56" viewBox="0 0 56 56" fill="none" xmlns="http://www.w3.org/2000/svg">
<g id="frame">
<g id="Group">
<path id="Vector" d="M6.00001 16C7.10458 16 8.00002 15.1046 8.00002 14V10C8.00002 8.89545 8.89545 8.00002 10 8.00002H14C15.1046 8.00002 16 7.10458 16 6.00001C16 4.89543 15.1046 4 14 4H10C6.6863 4 4 6.6863 4 10V14C4 15.1046 4.89543 16 6.00001 16Z" fill="white"/>
<path id="Vector_2" d="M9.99996 51.9998H14C15.1046 51.9998 16 51.1044 16 49.9998C16 48.8952 15.1046 47.9998 14 47.9998H9.99996C8.89539 47.9998 7.99995 47.1044 7.99995 45.9998V41.9998C7.99995 40.8952 7.10452 39.9998 5.99995 39.9998C4.89537 39.9998 3.99994 40.8952 3.99994 41.9998V45.9998C3.99994 49.3135 6.68624 51.9998 9.99996 51.9998Z" fill="white"/>
<path id="Vector_3" d="M52.0002 45.9998V41.9998C52.0002 40.8952 51.1047 39.9998 50.0002 39.9998C48.8956 39.9998 48.0002 40.8952 48.0002 41.9998V45.9998C48.0002 47.1044 47.1047 47.9998 46.0001 47.9998H42.0001C40.8956 47.9998 40.0001 48.8952 40.0001 49.9998C40.0001 51.1044 40.8956 51.9998 42.0001 51.9998H46.0001C49.3139 51.9998 52.0002 49.3135 52.0002 45.9998Z" fill="white"/>
<path id="Vector_4" d="M52.0002 9.99978C52.0002 6.68606 49.3139 3.99976 46.0001 3.99976H42.0001C40.8956 3.99976 40.0001 4.89519 40.0001 5.99976C40.0001 7.10434 40.8956 7.99977 42.0001 7.99977H46.0001C47.1047 7.99977 48.0002 8.89521 48.0002 9.99978V13.9998C48.0002 15.1044 48.8956 15.9998 50.0002 15.9998C51.1047 15.9998 52.0002 15.1044 52.0002 13.9998V9.99978Z" fill="white"/>
<path id="Vector_5" d="M22 5.99976C22 7.10434 22.8954 7.99977 24 7.99977H32C33.1046 7.99977 34 7.10434 34 5.99976C34 4.89519 33.1046 3.99976 32 3.99976H24C22.8954 3.99976 22 4.89519 22 5.99976Z" fill="white"/>
<path id="Vector_6" d="M24 48C22.8954 48 22 48.8954 22 50C22 51.1046 22.8954 52 24 52H32C33.1046 52 34 51.1046 34 50C34 48.8954 33.1046 48 32 48H24Z" fill="white"/>
<path id="Vector_7" d="M52.0001 23.9998C52.0001 22.8952 51.1047 21.9998 50.0001 21.9998C48.8956 21.9998 48.0001 22.8952 48.0001 23.9998V31.9998C48.0001 33.1044 48.8956 33.9998 50.0001 33.9998C51.1047 33.9998 52.0001 33.1044 52.0001 31.9998V23.9998Z" fill="white"/>
<path id="Vector_8" d="M5.99995 33.9998C7.10452 33.9998 7.99995 33.1044 7.99995 31.9998V23.9998C7.99995 22.8952 7.10452 21.9998 5.99995 21.9998C4.89537 21.9998 3.99994 22.8952 3.99994 23.9998V31.9998C3.99994 33.1044 4.89537 33.9998 5.99995 33.9998Z" fill="white"/>
</g>
</g>
</svg>
