<svg width="358" height="38" viewBox="0 0 358 38" fill="none" xmlns="http://www.w3.org/2000/svg">
<path d="M19 3.16667L14.4083 11.0833H5.225L9.975 19L5.225 26.9167H14.4083L19 34.8333L23.5917 26.9167H32.775L28.025 19L32.775 11.0833H23.5917L19 3.16667ZM19 7.91667L20.9 11.0833H17.1L19 7.91667ZM12.9833 13.4583L11.2417 16.625L9.34167 13.4583H12.9833ZM15.8333 13.4583H22.1667L25.3333 19L22.1667 24.5417H15.8333L12.6667 19L15.8333 13.4583ZM28.5 13.4583L26.6 16.625L24.8583 13.4583H28.5ZM11.2417 21.375L12.9833 24.5417H9.5L11.2417 21.375ZM26.7583 21.375L28.6583 24.5417H25.0167L26.7583 21.375ZM21.0583 26.9167L19 30.0833L17.1 26.9167H21.0583Z" fill="#479DD0"/>
<path d="M58.76 12.008V12.488C58.264 12.552 57.784 12.712 57.32 12.968C56.856 13.224 56.392 13.648 55.928 14.24L51.296 20.168L51.824 18.992L57.584 27.056C57.856 27.456 58.152 27.768 58.472 27.992C58.792 28.216 59.2 28.392 59.696 28.52V29C59.312 28.968 58.832 28.952 58.256 28.952C57.696 28.936 57.216 28.928 56.816 28.928C56.544 28.928 56.208 28.936 55.808 28.952C55.424 28.952 54.936 28.968 54.344 29V28.52C54.888 28.488 55.232 28.392 55.376 28.232C55.52 28.072 55.464 27.808 55.208 27.44L51.704 22.16C51.384 21.664 51.096 21.296 50.84 21.056C50.6 20.8 50.344 20.632 50.072 20.552C49.816 20.472 49.488 20.424 49.088 20.408V19.928C49.76 19.912 50.32 19.784 50.768 19.544C51.232 19.288 51.616 18.968 51.92 18.584L54.224 15.656C54.752 14.984 55.112 14.416 55.304 13.952C55.496 13.488 55.488 13.136 55.28 12.896C55.072 12.64 54.632 12.504 53.96 12.488V12.008C54.264 12.024 54.576 12.04 54.896 12.056C55.216 12.056 55.528 12.064 55.832 12.08C56.152 12.08 56.448 12.08 56.72 12.08C57.136 12.08 57.52 12.072 57.872 12.056C58.224 12.04 58.52 12.024 58.76 12.008ZM51.128 12.008V12.488C50.584 12.504 50.168 12.568 49.88 12.68C49.608 12.776 49.424 12.968 49.328 13.256C49.232 13.528 49.184 13.96 49.184 14.552V26.456C49.184 27.032 49.232 27.464 49.328 27.752C49.424 28.04 49.608 28.232 49.88 28.328C50.168 28.424 50.584 28.488 51.128 28.52V29C50.76 28.968 50.296 28.952 49.736 28.952C49.192 28.936 48.64 28.928 48.08 28.928C47.456 28.928 46.872 28.936 46.328 28.952C45.784 28.952 45.344 28.968 45.008 29V28.52C45.552 28.488 45.96 28.424 46.232 28.328C46.52 28.232 46.712 28.04 46.808 27.752C46.904 27.464 46.952 27.032 46.952 26.456V14.552C46.952 13.96 46.904 13.528 46.808 13.256C46.712 12.968 46.52 12.776 46.232 12.68C45.96 12.568 45.552 12.504 45.008 12.488V12.008C45.344 12.024 45.784 12.04 46.328 12.056C46.872 12.072 47.456 12.08 48.08 12.08C48.64 12.08 49.192 12.072 49.736 12.056C50.296 12.04 50.76 12.024 51.128 12.008ZM67.4353 11.672C68.9553 11.672 70.2833 12.016 71.4193 12.704C72.5713 13.392 73.4593 14.384 74.0833 15.68C74.7233 16.96 75.0433 18.52 75.0433 20.36C75.0433 22.152 74.7153 23.72 74.0593 25.064C73.4193 26.408 72.5233 27.456 71.3713 28.208C70.2193 28.96 68.8993 29.336 67.4113 29.336C65.8913 29.336 64.5553 28.992 63.4033 28.304C62.2673 27.616 61.3793 26.624 60.7393 25.328C60.1153 24.032 59.8033 22.472 59.8033 20.648C59.8033 18.856 60.1313 17.288 60.7873 15.944C61.4433 14.6 62.3393 13.552 63.4753 12.8C64.6273 12.048 65.9473 11.672 67.4353 11.672ZM67.3393 12.104C66.2993 12.104 65.3953 12.464 64.6273 13.184C63.8593 13.904 63.2593 14.896 62.8273 16.16C62.4113 17.424 62.2033 18.888 62.2033 20.552C62.2033 22.248 62.4353 23.728 62.8993 24.992C63.3793 26.24 64.0193 27.208 64.8193 27.896C65.6353 28.568 66.5313 28.904 67.5073 28.904C68.5473 28.904 69.4513 28.544 70.2193 27.824C70.9873 27.104 71.5793 26.112 71.9953 24.848C72.4273 23.568 72.6432 22.104 72.6432 20.456C72.6432 18.744 72.4033 17.264 71.9233 16.016C71.4593 14.768 70.8273 13.808 70.0273 13.136C69.2273 12.448 68.3313 12.104 67.3393 12.104ZM71.1313 6.872C71.4193 6.616 71.6913 6.504 71.9473 6.536C72.2193 6.552 72.4353 6.648 72.5953 6.824C72.7713 7.016 72.8433 7.24 72.8113 7.496C72.7793 7.752 72.6113 8.016 72.3073 8.288C72.0033 8.544 71.6433 8.784 71.2273 9.008C70.8113 9.216 70.3713 9.432 69.9073 9.656C69.4433 9.88 68.9873 10.152 68.5393 10.472L68.3233 10.184C68.7073 9.8 69.0513 9.408 69.3553 9.008C69.6753 8.592 69.9713 8.2 70.2433 7.832C70.5313 7.448 70.8273 7.128 71.1313 6.872ZM66.6433 6.872C66.9313 6.616 67.2033 6.504 67.4593 6.536C67.7313 6.552 67.9473 6.648 68.1073 6.824C68.2833 7.016 68.3553 7.24 68.3233 7.496C68.2913 7.752 68.1233 8.016 67.8193 8.288C67.5153 8.544 67.1553 8.784 66.7393 9.008C66.3233 9.216 65.8833 9.432 65.4193 9.656C64.9553 9.88 64.4993 10.152 64.0513 10.472L63.8353 10.184C64.2193 9.8 64.5633 9.408 64.8672 9.008C65.1873 8.592 65.4833 8.2 65.7553 7.832C66.0433 7.448 66.3393 7.128 66.6433 6.872ZM82.4643 11.744C83.2643 11.744 83.8723 11.84 84.2883 12.032C84.7043 12.208 85.0723 12.408 85.3923 12.632C85.5843 12.744 85.7363 12.832 85.8483 12.896C85.9763 12.944 86.0963 12.968 86.2083 12.968C86.3683 12.968 86.4803 12.88 86.5443 12.704C86.6243 12.528 86.6883 12.264 86.7363 11.912H87.2883C87.2723 12.184 87.2483 12.512 87.2163 12.896C87.2003 13.264 87.1843 13.76 87.1683 14.384C87.1683 14.992 87.1683 15.8 87.1683 16.808H86.6163C86.5683 16.04 86.4003 15.304 86.1123 14.6C85.8243 13.896 85.4003 13.32 84.8403 12.872C84.2963 12.424 83.5763 12.2 82.6803 12.2C81.8323 12.2 81.1283 12.456 80.5683 12.968C80.0243 13.48 79.7523 14.152 79.7523 14.984C79.7523 15.704 79.9363 16.312 80.3043 16.808C80.6723 17.288 81.1603 17.728 81.7683 18.128C82.3923 18.512 83.0643 18.928 83.7843 19.376C84.6163 19.888 85.3523 20.4 85.9923 20.912C86.6483 21.408 87.1603 21.96 87.5283 22.568C87.9123 23.176 88.1043 23.912 88.1043 24.776C88.1043 25.8 87.8723 26.648 87.4083 27.32C86.9443 27.992 86.3283 28.496 85.5603 28.832C84.7923 29.168 83.9443 29.336 83.0163 29.336C82.1683 29.336 81.4963 29.24 81.0003 29.048C80.5043 28.856 80.0803 28.656 79.7283 28.448C79.3763 28.224 79.1043 28.112 78.9123 28.112C78.7523 28.112 78.6323 28.2 78.5523 28.376C78.4883 28.552 78.4323 28.816 78.3843 29.168H77.8323C77.8643 28.832 77.8803 28.44 77.8803 27.992C77.8963 27.528 77.9043 26.928 77.9043 26.192C77.9203 25.456 77.9283 24.528 77.9283 23.408H78.4803C78.5443 24.368 78.7203 25.264 79.0083 26.096C79.3123 26.928 79.7683 27.6 80.3763 28.112C81.0003 28.608 81.8243 28.856 82.8483 28.856C83.3763 28.856 83.8723 28.752 84.3363 28.544C84.8163 28.32 85.2083 27.976 85.5123 27.512C85.8163 27.032 85.9683 26.416 85.9683 25.664C85.9683 25.008 85.8083 24.44 85.4883 23.96C85.1843 23.464 84.7523 23.008 84.1923 22.592C83.6323 22.16 82.9763 21.72 82.2243 21.272C81.4723 20.808 80.7683 20.336 80.1123 19.856C79.4563 19.376 78.9283 18.824 78.5283 18.2C78.1443 17.56 77.9523 16.792 77.9523 15.896C77.9523 14.952 78.1603 14.176 78.5763 13.568C79.0083 12.944 79.5683 12.488 80.2563 12.2C80.9443 11.896 81.6803 11.744 82.4643 11.744ZM102.481 12.008V12.488L92.9053 28.448H97.6093C98.3613 28.448 98.9693 28.368 99.4333 28.208C99.9133 28.048 100.289 27.8 100.561 27.464C100.849 27.112 101.065 26.648 101.209 26.072C101.353 25.496 101.465 24.792 101.545 23.96H102.097C102.049 24.456 102.025 25.112 102.025 25.928C102.025 26.232 102.033 26.672 102.049 27.248C102.081 27.808 102.129 28.392 102.193 29C101.601 28.968 100.953 28.952 100.249 28.952C99.5453 28.936 98.8413 28.928 98.1373 28.928C97.4493 28.928 96.8093 28.928 96.2173 28.928C95.2733 28.928 94.2733 28.936 93.2173 28.952C92.1773 28.952 91.2013 28.968 90.2893 29V28.52L99.9373 12.56H95.2573C94.5053 12.56 93.8893 12.64 93.4093 12.8C92.9453 12.96 92.5693 13.216 92.2812 13.568C92.0093 13.904 91.8013 14.36 91.6573 14.936C91.5133 15.512 91.4013 16.216 91.3213 17.048H90.7693C90.8013 16.792 90.8173 16.496 90.8173 16.16C90.8333 15.824 90.8413 15.464 90.8413 15.08C90.8413 14.776 90.8253 14.344 90.7933 13.784C90.7773 13.208 90.7373 12.616 90.6733 12.008C91.2653 12.024 91.9133 12.04 92.6173 12.056C93.3213 12.072 94.0253 12.08 94.7293 12.08C95.4333 12.08 96.0733 12.08 96.6493 12.08C97.5613 12.08 98.5373 12.08 99.5773 12.08C100.633 12.064 101.601 12.04 102.481 12.008ZM116.515 12.008C116.451 12.568 116.403 13.112 116.371 13.64C116.355 14.168 116.347 14.568 116.347 14.84C116.347 15.128 116.355 15.408 116.371 15.68C116.387 15.936 116.403 16.152 116.419 16.328H115.867C115.771 15.384 115.635 14.64 115.459 14.096C115.283 13.536 114.979 13.144 114.547 12.92C114.131 12.68 113.499 12.56 112.651 12.56H110.659C110.115 12.56 109.699 12.608 109.411 12.704C109.139 12.784 108.955 12.968 108.859 13.256C108.763 13.528 108.715 13.96 108.715 14.552V26.456C108.715 27.032 108.763 27.464 108.859 27.752C108.955 28.04 109.139 28.232 109.411 28.328C109.699 28.408 110.115 28.448 110.659 28.448H112.411C113.419 28.448 114.179 28.312 114.691 28.04C115.219 27.768 115.595 27.328 115.819 26.72C116.059 26.096 116.235 25.256 116.347 24.2H116.899C116.851 24.632 116.827 25.208 116.827 25.928C116.827 26.232 116.835 26.672 116.851 27.248C116.883 27.808 116.931 28.392 116.995 29C116.179 28.968 115.259 28.952 114.235 28.952C113.211 28.936 112.299 28.928 111.499 28.928C111.147 28.928 110.691 28.928 110.131 28.928C109.587 28.928 108.995 28.936 108.355 28.952C107.715 28.952 107.067 28.96 106.411 28.976C105.755 28.976 105.131 28.984 104.539 29V28.52C105.083 28.488 105.491 28.424 105.763 28.328C106.051 28.232 106.243 28.04 106.339 27.752C106.435 27.464 106.483 27.032 106.483 26.456V14.552C106.483 13.96 106.435 13.528 106.339 13.256C106.243 12.968 106.051 12.776 105.763 12.68C105.491 12.568 105.083 12.504 104.539 12.488V12.008C105.131 12.024 105.755 12.04 106.411 12.056C107.067 12.056 107.715 12.064 108.355 12.08C108.995 12.08 109.587 12.08 110.131 12.08C110.691 12.08 111.147 12.08 111.499 12.08C112.235 12.08 113.067 12.08 113.995 12.08C114.939 12.064 115.779 12.04 116.515 12.008ZM112.387 20.216C112.387 20.216 112.387 20.296 112.387 20.456C112.387 20.616 112.387 20.696 112.387 20.696H107.995C107.995 20.696 107.995 20.616 107.995 20.456C107.995 20.296 107.995 20.216 107.995 20.216H112.387ZM113.083 17.048C113.019 17.96 112.987 18.656 112.987 19.136C113.003 19.616 113.011 20.056 113.011 20.456C113.011 20.856 113.019 21.296 113.035 21.776C113.051 22.256 113.091 22.952 113.155 23.864H112.603C112.539 23.352 112.459 22.856 112.363 22.376C112.283 21.88 112.091 21.48 111.787 21.176C111.499 20.856 111.003 20.696 110.299 20.696V20.216C110.827 20.216 111.227 20.112 111.499 19.904C111.787 19.68 111.995 19.4 112.123 19.064C112.251 18.728 112.339 18.384 112.387 18.032C112.435 17.664 112.483 17.336 112.531 17.048H113.083ZM127.18 11.672C128.22 11.672 129.06 11.832 129.7 12.152C130.34 12.456 130.94 12.816 131.5 13.232C131.708 13.392 131.868 13.472 131.98 13.472C132.284 13.472 132.484 12.984 132.58 12.008H133.132C133.1 12.6 133.076 13.32 133.06 14.168C133.044 15.016 133.036 16.136 133.036 17.528H132.484C132.372 16.856 132.236 16.208 132.076 15.584C131.916 14.96 131.652 14.424 131.284 13.976C130.82 13.384 130.212 12.928 129.46 12.608C128.708 12.272 127.932 12.104 127.132 12.104C126.332 12.104 125.604 12.304 124.948 12.704C124.308 13.088 123.756 13.648 123.292 14.384C122.828 15.12 122.468 16.008 122.212 17.048C121.972 18.072 121.852 19.232 121.852 20.528C121.852 23.408 122.316 25.52 123.244 26.864C124.172 28.192 125.612 28.856 127.564 28.856C128.14 28.856 128.636 28.776 129.052 28.616C129.484 28.44 129.82 28.272 130.06 28.112C130.364 27.904 130.556 27.712 130.636 27.536C130.716 27.344 130.756 27.096 130.756 26.792V24.488C130.756 23.832 130.692 23.344 130.564 23.024C130.436 22.704 130.196 22.488 129.844 22.376C129.508 22.264 129.004 22.2 128.332 22.184V21.704C128.62 21.72 128.956 21.736 129.34 21.752C129.724 21.752 130.124 21.76 130.54 21.776C130.972 21.776 131.364 21.776 131.716 21.776C132.244 21.776 132.716 21.768 133.132 21.752C133.564 21.736 133.924 21.72 134.212 21.704V22.184C133.86 22.2 133.596 22.256 133.42 22.352C133.244 22.448 133.124 22.64 133.06 22.928C133.012 23.216 132.988 23.656 132.988 24.248V29H132.508C132.492 28.728 132.428 28.432 132.316 28.112C132.22 27.792 132.068 27.632 131.86 27.632C131.764 27.632 131.668 27.656 131.572 27.704C131.476 27.752 131.308 27.864 131.068 28.04C130.54 28.44 129.98 28.76 129.388 29C128.796 29.224 128.108 29.336 127.324 29.336C125.676 29.336 124.26 29 123.076 28.328C121.908 27.64 121.012 26.656 120.388 25.376C119.764 24.096 119.452 22.568 119.452 20.792C119.452 18.92 119.788 17.304 120.46 15.944C121.132 14.584 122.044 13.536 123.196 12.8C124.364 12.048 125.692 11.672 127.18 11.672ZM142.159 12.008V12.488C141.615 12.504 141.199 12.568 140.911 12.68C140.639 12.776 140.455 12.968 140.359 13.256C140.263 13.528 140.215 13.96 140.215 14.552V26.456C140.215 27.032 140.263 27.464 140.359 27.752C140.455 28.04 140.639 28.232 140.911 28.328C141.199 28.424 141.615 28.488 142.159 28.52V29C141.791 28.968 141.327 28.952 140.767 28.952C140.223 28.936 139.671 28.928 139.111 28.928C138.487 28.928 137.903 28.936 137.359 28.952C136.815 28.952 136.375 28.968 136.039 29V28.52C136.583 28.488 136.991 28.424 137.263 28.328C137.551 28.232 137.743 28.04 137.839 27.752C137.935 27.464 137.983 27.032 137.983 26.456V14.552C137.983 13.96 137.935 13.528 137.839 13.256C137.743 12.968 137.551 12.776 137.263 12.68C136.991 12.568 136.583 12.504 136.039 12.488V12.008C136.375 12.024 136.815 12.04 137.359 12.056C137.903 12.072 138.487 12.08 139.111 12.08C139.671 12.08 140.223 12.072 140.767 12.056C141.327 12.04 141.791 12.024 142.159 12.008ZM162.341 12.008V12.488L152.765 28.448H157.469C158.221 28.448 158.829 28.368 159.293 28.208C159.773 28.048 160.149 27.8 160.421 27.464C160.709 27.112 160.925 26.648 161.069 26.072C161.213 25.496 161.325 24.792 161.405 23.96H161.957C161.909 24.456 161.885 25.112 161.885 25.928C161.885 26.232 161.893 26.672 161.909 27.248C161.941 27.808 161.989 28.392 162.053 29C161.461 28.968 160.813 28.952 160.109 28.952C159.405 28.936 158.701 28.928 157.997 28.928C157.309 28.928 156.669 28.928 156.077 28.928C155.133 28.928 154.133 28.936 153.077 28.952C152.037 28.952 151.061 28.968 150.149 29V28.52L159.797 12.56H155.117C154.365 12.56 153.749 12.64 153.269 12.8C152.805 12.96 152.429 13.216 152.141 13.568C151.869 13.904 151.661 14.36 151.517 14.936C151.373 15.512 151.261 16.216 151.181 17.048H150.629C150.661 16.792 150.677 16.496 150.677 16.16C150.693 15.824 150.701 15.464 150.701 15.08C150.701 14.776 150.685 14.344 150.653 13.784C150.637 13.208 150.597 12.616 150.533 12.008C151.125 12.024 151.773 12.04 152.477 12.056C153.181 12.072 153.885 12.08 154.589 12.08C155.293 12.08 155.933 12.08 156.509 12.08C157.421 12.08 158.397 12.08 159.437 12.08C160.493 12.064 161.461 12.04 162.341 12.008ZM169.535 11.744C170.335 11.744 170.943 11.84 171.359 12.032C171.775 12.208 172.143 12.408 172.463 12.632C172.655 12.744 172.807 12.832 172.919 12.896C173.047 12.944 173.167 12.968 173.279 12.968C173.439 12.968 173.551 12.88 173.615 12.704C173.695 12.528 173.759 12.264 173.807 11.912H174.359C174.343 12.184 174.319 12.512 174.287 12.896C174.271 13.264 174.255 13.76 174.239 14.384C174.239 14.992 174.239 15.8 174.239 16.808H173.687C173.639 16.04 173.471 15.304 173.183 14.6C172.895 13.896 172.471 13.32 171.911 12.872C171.367 12.424 170.647 12.2 169.751 12.2C168.903 12.2 168.199 12.456 167.639 12.968C167.095 13.48 166.823 14.152 166.823 14.984C166.823 15.704 167.007 16.312 167.375 16.808C167.743 17.288 168.231 17.728 168.839 18.128C169.463 18.512 170.135 18.928 170.855 19.376C171.687 19.888 172.423 20.4 173.063 20.912C173.719 21.408 174.231 21.96 174.599 22.568C174.983 23.176 175.175 23.912 175.175 24.776C175.175 25.8 174.943 26.648 174.479 27.32C174.015 27.992 173.399 28.496 172.631 28.832C171.863 29.168 171.015 29.336 170.087 29.336C169.239 29.336 168.567 29.24 168.071 29.048C167.575 28.856 167.151 28.656 166.799 28.448C166.447 28.224 166.175 28.112 165.983 28.112C165.823 28.112 165.703 28.2 165.623 28.376C165.559 28.552 165.503 28.816 165.455 29.168H164.903C164.935 28.832 164.951 28.44 164.951 27.992C164.967 27.528 164.975 26.928 164.975 26.192C164.991 25.456 164.999 24.528 164.999 23.408H165.551C165.615 24.368 165.791 25.264 166.079 26.096C166.383 26.928 166.839 27.6 167.447 28.112C168.071 28.608 168.895 28.856 169.919 28.856C170.447 28.856 170.943 28.752 171.407 28.544C171.887 28.32 172.279 27.976 172.583 27.512C172.887 27.032 173.039 26.416 173.039 25.664C173.039 25.008 172.879 24.44 172.559 23.96C172.255 23.464 171.823 23.008 171.263 22.592C170.703 22.16 170.047 21.72 169.295 21.272C168.543 20.808 167.839 20.336 167.183 19.856C166.527 19.376 165.999 18.824 165.599 18.2C165.215 17.56 165.023 16.792 165.023 15.896C165.023 14.952 165.231 14.176 165.647 13.568C166.079 12.944 166.639 12.488 167.327 12.2C168.015 11.896 168.751 11.744 169.535 11.744ZM183.48 12.008V12.488C182.936 12.504 182.52 12.568 182.232 12.68C181.96 12.776 181.776 12.968 181.68 13.256C181.584 13.528 181.536 13.96 181.536 14.552V26.456C181.536 27.032 181.584 27.464 181.68 27.752C181.776 28.04 181.96 28.232 182.232 28.328C182.52 28.424 182.936 28.488 183.48 28.52V29C183.112 28.968 182.648 28.952 182.088 28.952C181.544 28.936 180.992 28.928 180.432 28.928C179.808 28.928 179.224 28.936 178.68 28.952C178.136 28.952 177.696 28.968 177.36 29V28.52C177.904 28.488 178.312 28.424 178.584 28.328C178.872 28.232 179.064 28.04 179.16 27.752C179.256 27.464 179.304 27.032 179.304 26.456V14.552C179.304 13.96 179.256 13.528 179.16 13.256C179.064 12.968 178.872 12.776 178.584 12.68C178.312 12.568 177.904 12.504 177.36 12.488V12.008C177.696 12.024 178.136 12.04 178.68 12.056C179.224 12.072 179.808 12.08 180.432 12.08C180.992 12.08 181.544 12.072 182.088 12.056C182.648 12.04 183.112 12.024 183.48 12.008ZM192.044 12.008C194.908 12.008 197.036 12.728 198.428 14.168C199.82 15.592 200.516 17.64 200.516 20.312C200.516 22.056 200.172 23.584 199.484 24.896C198.812 26.192 197.828 27.2 196.532 27.92C195.236 28.64 193.668 29 191.828 29C191.588 29 191.268 28.992 190.868 28.976C190.468 28.96 190.052 28.952 189.62 28.952C189.204 28.936 188.82 28.928 188.468 28.928C187.908 28.928 187.356 28.936 186.812 28.952C186.268 28.952 185.828 28.968 185.492 29V28.52C186.036 28.488 186.444 28.424 186.716 28.328C187.004 28.232 187.196 28.04 187.292 27.752C187.388 27.464 187.436 27.032 187.436 26.456V14.552C187.436 13.96 187.388 13.528 187.292 13.256C187.196 12.968 187.004 12.776 186.716 12.68C186.444 12.568 186.036 12.504 185.492 12.488V12.008C185.828 12.024 186.268 12.048 186.812 12.08C187.356 12.096 187.892 12.096 188.42 12.08C188.98 12.064 189.612 12.048 190.316 12.032C191.02 12.016 191.596 12.008 192.044 12.008ZM191.444 12.44C190.708 12.44 190.228 12.576 190.004 12.848C189.78 13.12 189.668 13.672 189.668 14.504V26.504C189.668 27.336 189.78 27.888 190.004 28.16C190.244 28.432 190.732 28.568 191.468 28.568C193.212 28.568 194.564 28.256 195.524 27.632C196.484 26.992 197.156 26.064 197.54 24.848C197.924 23.632 198.116 22.152 198.116 20.408C198.116 18.616 197.9 17.136 197.468 15.968C197.052 14.784 196.356 13.904 195.38 13.328C194.42 12.736 193.108 12.44 191.444 12.44ZM210.732 11.672C212.252 11.672 213.58 12.016 214.716 12.704C215.868 13.392 216.756 14.384 217.38 15.68C218.02 16.96 218.34 18.52 218.34 20.36C218.34 22.152 218.012 23.72 217.356 25.064C216.716 26.408 215.82 27.456 214.668 28.208C213.516 28.96 212.196 29.336 210.708 29.336C209.188 29.336 207.852 28.992 206.7 28.304C205.564 27.616 204.676 26.624 204.036 25.328C203.412 24.032 203.1 22.472 203.1 20.648C203.1 18.856 203.428 17.288 204.084 15.944C204.74 14.6 205.636 13.552 206.772 12.8C207.924 12.048 209.244 11.672 210.732 11.672ZM210.636 12.104C209.596 12.104 208.692 12.464 207.924 13.184C207.156 13.904 206.556 14.896 206.124 16.16C205.708 17.424 205.5 18.888 205.5 20.552C205.5 22.248 205.732 23.728 206.196 24.992C206.676 26.24 207.316 27.208 208.116 27.896C208.932 28.568 209.828 28.904 210.804 28.904C211.844 28.904 212.748 28.544 213.516 27.824C214.284 27.104 214.876 26.112 215.292 24.848C215.724 23.568 215.94 22.104 215.94 20.456C215.94 18.744 215.7 17.264 215.22 16.016C214.756 14.768 214.124 13.808 213.324 13.136C212.524 12.448 211.628 12.104 210.636 12.104ZM213.252 6.776C213.572 6.568 213.86 6.496 214.116 6.56C214.388 6.608 214.588 6.736 214.716 6.944C214.844 7.152 214.876 7.384 214.812 7.64C214.748 7.88 214.548 8.112 214.212 8.336C213.876 8.544 213.484 8.736 213.036 8.912C212.604 9.072 212.092 9.272 211.5 9.512C210.924 9.736 210.22 10.056 209.388 10.472L209.22 10.16C209.956 9.6 210.556 9.112 211.02 8.696C211.5 8.264 211.908 7.888 212.244 7.568C212.58 7.248 212.916 6.984 213.252 6.776ZM236.634 29V28.52C237.178 28.488 237.586 28.424 237.858 28.328C238.146 28.232 238.338 28.04 238.434 27.752C238.53 27.464 238.578 27.032 238.578 26.456V14.552C238.578 13.96 238.53 13.528 238.434 13.256C238.338 12.968 238.146 12.776 237.858 12.68C237.586 12.568 237.178 12.504 236.634 12.488V12.008C237.002 12.024 237.466 12.04 238.026 12.056C238.586 12.072 239.138 12.08 239.682 12.08C240.306 12.08 240.89 12.072 241.434 12.056C241.978 12.04 242.418 12.024 242.754 12.008V12.488C242.21 12.504 241.794 12.568 241.506 12.68C241.234 12.776 241.05 12.968 240.954 13.256C240.858 13.528 240.81 13.96 240.81 14.552V26.456C240.81 27.032 240.858 27.464 240.954 27.752C241.05 28.04 241.234 28.232 241.506 28.328C241.794 28.424 242.21 28.488 242.754 28.52V29C242.418 28.968 241.978 28.952 241.434 28.952C240.89 28.936 240.306 28.928 239.682 28.928C239.138 28.928 238.586 28.936 238.026 28.952C237.466 28.952 237.002 28.968 236.634 29ZM226.602 29V28.52C227.146 28.488 227.554 28.424 227.826 28.328C228.114 28.232 228.306 28.04 228.402 27.752C228.498 27.464 228.546 27.032 228.546 26.456V14.552C228.546 13.96 228.498 13.528 228.402 13.256C228.306 12.968 228.114 12.776 227.826 12.68C227.554 12.568 227.146 12.504 226.602 12.488V12.008C226.938 12.024 227.378 12.04 227.922 12.056C228.466 12.072 229.05 12.08 229.674 12.08C230.234 12.08 230.786 12.072 231.33 12.056C231.89 12.04 232.354 12.024 232.722 12.008V12.488C232.178 12.504 231.762 12.568 231.474 12.68C231.202 12.776 231.018 12.968 230.922 13.256C230.826 13.528 230.778 13.96 230.778 14.552V26.456C230.778 27.032 230.826 27.464 230.922 27.752C231.018 28.04 231.202 28.232 231.474 28.328C231.762 28.424 232.178 28.488 232.722 28.52V29C232.354 28.968 231.89 28.952 231.33 28.952C230.786 28.936 230.234 28.928 229.674 28.928C229.05 28.928 228.466 28.936 227.922 28.952C227.378 28.952 226.938 28.968 226.602 29ZM229.938 20.696V20.216H239.418V20.696H229.938ZM250.886 12.008V12.488C250.342 12.504 249.926 12.568 249.638 12.68C249.366 12.776 249.182 12.968 249.086 13.256C248.99 13.528 248.942 13.96 248.942 14.552V26.456C248.942 27.032 248.99 27.464 249.086 27.752C249.182 28.04 249.366 28.232 249.638 28.328C249.926 28.424 250.342 28.488 250.886 28.52V29C250.518 28.968 250.054 28.952 249.494 28.952C248.95 28.936 248.398 28.928 247.838 28.928C247.214 28.928 246.63 28.936 246.086 28.952C245.542 28.952 245.102 28.968 244.766 29V28.52C245.31 28.488 245.718 28.424 245.99 28.328C246.278 28.232 246.47 28.04 246.566 27.752C246.662 27.464 246.71 27.032 246.71 26.456V14.552C246.71 13.96 246.662 13.528 246.566 13.256C246.47 12.968 246.278 12.776 245.99 12.68C245.718 12.568 245.31 12.504 244.766 12.488V12.008C245.102 12.024 245.542 12.04 246.086 12.056C246.63 12.072 247.214 12.08 247.838 12.08C248.398 12.08 248.95 12.072 249.494 12.056C250.054 12.04 250.518 12.024 250.886 12.008ZM266.099 12.008C266.035 12.616 265.987 13.208 265.955 13.784C265.939 14.344 265.931 14.776 265.931 15.08C265.931 15.464 265.939 15.824 265.955 16.16C265.971 16.496 265.987 16.792 266.003 17.048H265.451C265.339 15.928 265.187 15.048 264.995 14.408C264.803 13.752 264.467 13.28 263.987 12.992C263.507 12.704 262.763 12.56 261.755 12.56H260.459V26.216C260.459 26.856 260.515 27.336 260.627 27.656C260.755 27.976 260.995 28.192 261.347 28.304C261.699 28.416 262.211 28.488 262.883 28.52V29C262.467 28.968 261.939 28.952 261.299 28.952C260.659 28.936 260.011 28.928 259.355 28.928C258.635 28.928 257.955 28.936 257.315 28.952C256.691 28.952 256.187 28.968 255.803 29V28.52C256.475 28.488 256.987 28.416 257.339 28.304C257.691 28.192 257.923 27.976 258.035 27.656C258.163 27.336 258.227 26.856 258.227 26.216V12.56H256.931C255.939 12.56 255.195 12.704 254.699 12.992C254.219 13.28 253.883 13.752 253.691 14.408C253.499 15.048 253.347 15.928 253.235 17.048H252.683C252.715 16.792 252.731 16.496 252.731 16.16C252.747 15.824 252.755 15.464 252.755 15.08C252.755 14.776 252.739 14.344 252.707 13.784C252.691 13.208 252.651 12.616 252.587 12.008C253.259 12.024 253.987 12.04 254.771 12.056C255.571 12.072 256.371 12.08 257.171 12.08C257.971 12.08 258.699 12.08 259.355 12.08C260.011 12.08 260.731 12.08 261.515 12.08C262.315 12.08 263.115 12.072 263.915 12.056C264.715 12.04 265.443 12.024 266.099 12.008ZM281.557 12.008V12.488C281.061 12.552 280.581 12.712 280.117 12.968C279.653 13.224 279.189 13.648 278.725 14.24L274.093 20.168L274.621 18.992L280.381 27.056C280.653 27.456 280.949 27.768 281.269 27.992C281.589 28.216 281.997 28.392 282.493 28.52V29C282.109 28.968 281.629 28.952 281.053 28.952C280.493 28.936 280.013 28.928 279.613 28.928C279.341 28.928 279.005 28.936 278.605 28.952C278.221 28.952 277.733 28.968 277.141 29V28.52C277.685 28.488 278.029 28.392 278.173 28.232C278.317 28.072 278.261 27.808 278.005 27.44L274.501 22.16C274.181 21.664 273.893 21.296 273.637 21.056C273.397 20.8 273.141 20.632 272.869 20.552C272.613 20.472 272.285 20.424 271.885 20.408V19.928C272.557 19.912 273.117 19.784 273.565 19.544C274.029 19.288 274.413 18.968 274.717 18.584L277.021 15.656C277.549 14.984 277.909 14.416 278.101 13.952C278.293 13.488 278.285 13.136 278.077 12.896C277.869 12.64 277.429 12.504 276.757 12.488V12.008C277.061 12.024 277.373 12.04 277.693 12.056C278.013 12.056 278.325 12.064 278.629 12.08C278.949 12.08 279.245 12.08 279.517 12.08C279.933 12.08 280.317 12.072 280.669 12.056C281.021 12.04 281.317 12.024 281.557 12.008ZM273.925 12.008V12.488C273.381 12.504 272.965 12.568 272.677 12.68C272.405 12.776 272.221 12.968 272.125 13.256C272.029 13.528 271.981 13.96 271.981 14.552V26.456C271.981 27.032 272.029 27.464 272.125 27.752C272.221 28.04 272.405 28.232 272.677 28.328C272.965 28.424 273.381 28.488 273.925 28.52V29C273.557 28.968 273.093 28.952 272.533 28.952C271.989 28.936 271.437 28.928 270.877 28.928C270.253 28.928 269.669 28.936 269.125 28.952C268.581 28.952 268.141 28.968 267.805 29V28.52C268.349 28.488 268.757 28.424 269.029 28.328C269.317 28.232 269.509 28.04 269.605 27.752C269.701 27.464 269.749 27.032 269.749 26.456V14.552C269.749 13.96 269.701 13.528 269.605 13.256C269.509 12.968 269.317 12.776 269.029 12.68C268.757 12.568 268.349 12.504 267.805 12.488V12.008C268.141 12.024 268.581 12.04 269.125 12.056C269.669 12.072 270.253 12.08 270.877 12.08C271.437 12.08 271.989 12.072 272.533 12.056C273.093 12.04 273.557 12.024 273.925 12.008ZM290.232 11.672C291.752 11.672 293.08 12.016 294.216 12.704C295.368 13.392 296.256 14.384 296.88 15.68C297.52 16.96 297.84 18.52 297.84 20.36C297.84 22.152 297.512 23.72 296.856 25.064C296.216 26.408 295.32 27.456 294.168 28.208C293.016 28.96 291.696 29.336 290.208 29.336C288.688 29.336 287.352 28.992 286.2 28.304C285.064 27.616 284.176 26.624 283.536 25.328C282.912 24.032 282.6 22.472 282.6 20.648C282.6 18.856 282.928 17.288 283.584 15.944C284.24 14.6 285.136 13.552 286.272 12.8C287.424 12.048 288.744 11.672 290.232 11.672ZM290.136 12.104C289.096 12.104 288.192 12.464 287.424 13.184C286.656 13.904 286.056 14.896 285.624 16.16C285.208 17.424 285 18.888 285 20.552C285 22.248 285.232 23.728 285.696 24.992C286.176 26.24 286.816 27.208 287.616 27.896C288.432 28.568 289.328 28.904 290.304 28.904C291.344 28.904 292.248 28.544 293.016 27.824C293.784 27.104 294.376 26.112 294.792 24.848C295.224 23.568 295.44 22.104 295.44 20.456C295.44 18.744 295.2 17.264 294.72 16.016C294.256 14.768 293.624 13.808 292.824 13.136C292.024 12.448 291.128 12.104 290.136 12.104ZM292.728 7.688C293.096 7.688 293.416 7.832 293.688 8.12C293.976 8.392 294.12 8.712 294.12 9.08C294.12 9.464 293.976 9.792 293.688 10.064C293.416 10.336 293.096 10.472 292.728 10.472C292.344 10.472 292.016 10.336 291.744 10.064C291.472 9.792 291.336 9.464 291.336 9.08C291.336 8.712 291.472 8.392 291.744 8.12C292.016 7.832 292.344 7.688 292.728 7.688ZM287.64 7.688C288.008 7.688 288.328 7.832 288.6 8.12C288.888 8.392 289.032 8.712 289.032 9.08C289.032 9.464 288.888 9.792 288.6 10.064C288.328 10.336 288.008 10.472 287.64 10.472C287.256 10.472 286.928 10.336 286.656 10.064C286.384 9.792 286.248 9.464 286.248 9.08C286.248 8.712 286.384 8.392 286.656 8.12C286.928 7.832 287.256 7.688 287.64 7.688ZM312.317 12.008V12.488L302.741 28.448H307.445C308.197 28.448 308.805 28.368 309.269 28.208C309.749 28.048 310.125 27.8 310.397 27.464C310.685 27.112 310.901 26.648 311.045 26.072C311.189 25.496 311.301 24.792 311.381 23.96H311.933C311.885 24.456 311.861 25.112 311.861 25.928C311.861 26.232 311.869 26.672 311.885 27.248C311.917 27.808 311.965 28.392 312.029 29C311.437 28.968 310.789 28.952 310.085 28.952C309.381 28.936 308.677 28.928 307.973 28.928C307.285 28.928 306.645 28.928 306.053 28.928C305.109 28.928 304.109 28.936 303.053 28.952C302.013 28.952 301.037 28.968 300.125 29V28.52L309.773 12.56H305.093C304.341 12.56 303.725 12.64 303.245 12.8C302.781 12.96 302.405 13.216 302.117 13.568C301.845 13.904 301.637 14.36 301.493 14.936C301.349 15.512 301.237 16.216 301.157 17.048H300.605C300.637 16.792 300.653 16.496 300.653 16.16C300.669 15.824 300.677 15.464 300.677 15.08C300.677 14.776 300.661 14.344 300.629 13.784C300.613 13.208 300.573 12.616 300.509 12.008C301.101 12.024 301.749 12.04 302.453 12.056C303.157 12.072 303.861 12.08 304.565 12.08C305.269 12.08 305.909 12.08 306.485 12.08C307.397 12.08 308.373 12.08 309.413 12.08C310.469 12.064 311.437 12.04 312.317 12.008ZM319.511 11.744C320.311 11.744 320.919 11.84 321.335 12.032C321.751 12.208 322.119 12.408 322.439 12.632C322.631 12.744 322.783 12.832 322.895 12.896C323.023 12.944 323.143 12.968 323.255 12.968C323.415 12.968 323.527 12.88 323.591 12.704C323.671 12.528 323.735 12.264 323.783 11.912H324.335C324.319 12.184 324.295 12.512 324.263 12.896C324.247 13.264 324.231 13.76 324.215 14.384C324.215 14.992 324.215 15.8 324.215 16.808H323.663C323.615 16.04 323.447 15.304 323.159 14.6C322.871 13.896 322.447 13.32 321.887 12.872C321.343 12.424 320.623 12.2 319.727 12.2C318.879 12.2 318.175 12.456 317.615 12.968C317.071 13.48 316.799 14.152 316.799 14.984C316.799 15.704 316.983 16.312 317.351 16.808C317.719 17.288 318.207 17.728 318.815 18.128C319.439 18.512 320.111 18.928 320.831 19.376C321.663 19.888 322.399 20.4 323.039 20.912C323.695 21.408 324.207 21.96 324.575 22.568C324.959 23.176 325.151 23.912 325.151 24.776C325.151 25.8 324.919 26.648 324.455 27.32C323.991 27.992 323.375 28.496 322.607 28.832C321.839 29.168 320.991 29.336 320.063 29.336C319.215 29.336 318.543 29.24 318.047 29.048C317.551 28.856 317.127 28.656 316.775 28.448C316.423 28.224 316.151 28.112 315.959 28.112C315.799 28.112 315.679 28.2 315.599 28.376C315.535 28.552 315.479 28.816 315.431 29.168H314.879C314.911 28.832 314.927 28.44 314.927 27.992C314.943 27.528 314.951 26.928 314.951 26.192C314.967 25.456 314.975 24.528 314.975 23.408H315.527C315.591 24.368 315.767 25.264 316.055 26.096C316.359 26.928 316.815 27.6 317.423 28.112C318.047 28.608 318.871 28.856 319.895 28.856C320.423 28.856 320.919 28.752 321.383 28.544C321.863 28.32 322.255 27.976 322.559 27.512C322.863 27.032 323.015 26.416 323.015 25.664C323.015 25.008 322.855 24.44 322.535 23.96C322.231 23.464 321.799 23.008 321.239 22.592C320.679 22.16 320.023 21.72 319.271 21.272C318.519 20.808 317.815 20.336 317.159 19.856C316.503 19.376 315.975 18.824 315.575 18.2C315.191 17.56 314.999 16.792 314.999 15.896C314.999 14.952 315.207 14.176 315.623 13.568C316.055 12.944 316.615 12.488 317.303 12.2C317.991 11.896 318.727 11.744 319.511 11.744ZM339.312 12.008C339.248 12.568 339.2 13.112 339.168 13.64C339.152 14.168 339.144 14.568 339.144 14.84C339.144 15.128 339.152 15.408 339.168 15.68C339.184 15.936 339.2 16.152 339.216 16.328H338.664C338.568 15.384 338.432 14.64 338.256 14.096C338.08 13.536 337.776 13.144 337.344 12.92C336.928 12.68 336.296 12.56 335.448 12.56H333.456C332.912 12.56 332.496 12.608 332.208 12.704C331.936 12.784 331.752 12.968 331.656 13.256C331.56 13.528 331.512 13.96 331.512 14.552V26.456C331.512 27.032 331.56 27.464 331.656 27.752C331.752 28.04 331.936 28.232 332.208 28.328C332.496 28.408 332.912 28.448 333.456 28.448H335.208C336.216 28.448 336.976 28.312 337.488 28.04C338.016 27.768 338.392 27.328 338.616 26.72C338.856 26.096 339.032 25.256 339.144 24.2H339.696C339.648 24.632 339.624 25.208 339.624 25.928C339.624 26.232 339.632 26.672 339.648 27.248C339.68 27.808 339.728 28.392 339.792 29C338.976 28.968 338.056 28.952 337.032 28.952C336.008 28.936 335.096 28.928 334.296 28.928C333.944 28.928 333.488 28.928 332.928 28.928C332.384 28.928 331.792 28.936 331.152 28.952C330.512 28.952 329.864 28.96 329.208 28.976C328.552 28.976 327.928 28.984 327.336 29V28.52C327.88 28.488 328.288 28.424 328.56 28.328C328.848 28.232 329.04 28.04 329.136 27.752C329.232 27.464 329.28 27.032 329.28 26.456V14.552C329.28 13.96 329.232 13.528 329.136 13.256C329.04 12.968 328.848 12.776 328.56 12.68C328.288 12.568 327.88 12.504 327.336 12.488V12.008C327.928 12.024 328.552 12.04 329.208 12.056C329.864 12.056 330.512 12.064 331.152 12.08C331.792 12.08 332.384 12.08 332.928 12.08C333.488 12.08 333.944 12.08 334.296 12.08C335.032 12.08 335.864 12.08 336.792 12.08C337.736 12.064 338.576 12.04 339.312 12.008ZM335.184 20.216C335.184 20.216 335.184 20.296 335.184 20.456C335.184 20.616 335.184 20.696 335.184 20.696H330.792C330.792 20.696 330.792 20.616 330.792 20.456C330.792 20.296 330.792 20.216 330.792 20.216H335.184ZM335.88 17.048C335.816 17.96 335.784 18.656 335.784 19.136C335.8 19.616 335.808 20.056 335.808 20.456C335.808 20.856 335.816 21.296 335.832 21.776C335.848 22.256 335.888 22.952 335.952 23.864H335.4C335.336 23.352 335.256 22.856 335.16 22.376C335.08 21.88 334.888 21.48 334.584 21.176C334.296 20.856 333.8 20.696 333.096 20.696V20.216C333.624 20.216 334.024 20.112 334.296 19.904C334.584 19.68 334.792 19.4 334.92 19.064C335.048 18.728 335.136 18.384 335.184 18.032C335.232 17.664 335.28 17.336 335.328 17.048H335.88ZM336.24 6.776C336.56 6.568 336.848 6.496 337.104 6.56C337.376 6.608 337.576 6.736 337.704 6.944C337.832 7.152 337.864 7.384 337.8 7.64C337.736 7.88 337.536 8.112 337.2 8.336C336.864 8.544 336.472 8.736 336.024 8.912C335.592 9.072 335.08 9.272 334.488 9.512C333.912 9.736 333.208 10.056 332.376 10.472L332.208 10.16C332.944 9.6 333.544 9.112 334.008 8.696C334.488 8.264 334.896 7.888 335.232 7.568C335.568 7.248 335.904 6.984 336.24 6.776ZM349.977 11.672C351.017 11.672 351.857 11.832 352.497 12.152C353.137 12.456 353.737 12.816 354.297 13.232C354.505 13.392 354.665 13.472 354.777 13.472C355.081 13.472 355.281 12.984 355.377 12.008H355.929C355.897 12.6 355.873 13.32 355.857 14.168C355.841 15.016 355.833 16.136 355.833 17.528H355.281C355.169 16.856 355.033 16.208 354.873 15.584C354.713 14.96 354.449 14.424 354.081 13.976C353.617 13.384 353.009 12.928 352.257 12.608C351.505 12.272 350.729 12.104 349.929 12.104C349.129 12.104 348.401 12.304 347.745 12.704C347.105 13.088 346.553 13.648 346.089 14.384C345.625 15.12 345.265 16.008 345.009 17.048C344.769 18.072 344.649 19.232 344.649 20.528C344.649 23.408 345.113 25.52 346.041 26.864C346.969 28.192 348.409 28.856 350.361 28.856C350.937 28.856 351.433 28.776 351.849 28.616C352.281 28.44 352.617 28.272 352.857 28.112C353.161 27.904 353.353 27.712 353.433 27.536C353.513 27.344 353.553 27.096 353.553 26.792V24.488C353.553 23.832 353.489 23.344 353.361 23.024C353.233 22.704 352.993 22.488 352.641 22.376C352.305 22.264 351.801 22.2 351.129 22.184V21.704C351.417 21.72 351.753 21.736 352.137 21.752C352.521 21.752 352.921 21.76 353.337 21.776C353.769 21.776 354.161 21.776 354.513 21.776C355.041 21.776 355.513 21.768 355.929 21.752C356.361 21.736 356.721 21.72 357.009 21.704V22.184C356.657 22.2 356.393 22.256 356.217 22.352C356.041 22.448 355.921 22.64 355.857 22.928C355.809 23.216 355.785 23.656 355.785 24.248V29H355.305C355.289 28.728 355.225 28.432 355.113 28.112C355.017 27.792 354.865 27.632 354.657 27.632C354.561 27.632 354.465 27.656 354.369 27.704C354.273 27.752 354.105 27.864 353.865 28.04C353.337 28.44 352.777 28.76 352.185 29C351.593 29.224 350.905 29.336 350.121 29.336C348.473 29.336 347.057 29 345.873 28.328C344.705 27.64 343.809 26.656 343.185 25.376C342.561 24.096 342.249 22.568 342.249 20.792C342.249 18.92 342.585 17.304 343.257 15.944C343.929 14.584 344.841 13.536 345.993 12.8C347.161 12.048 348.489 11.672 349.977 11.672Z" fill="black"/>
</svg>
